<svg xmlns="http://www.w3.org/2000/svg" viewBox="0 0 469 880.72"><defs><style>.cls-1{fill:#efefef;}</style></defs><g id="Layer_2" data-name="Layer 2"><g id="Layer_1-2" data-name="Layer 1"><path class="cls-1" d="M203,880.72l266-354-333-39s50-96,48-138-24-80-25-123c0,0,39,50,100,64,0,0-6-16-10-54,0,0,24,51,50,53,0,0,6-53,15-64,0,0,5,51,53,46,0,0-8-29-4-39,0,0,20,3,25,46,0,0,13,111-151,152,0,0-7,8,5,10s42,7,77,31,110-89,116-125,16-113-63-164c0,0-29,41-43-23,0,0-25,13-41,39,0,0-23-3-38-87,0,0-26,13-36,105,0,0-46-13-70-131,0,0-68,26-46,133s2,160-13,186-85,155-85,155l324,35Z"/><path class="cls-1" d="M351,174.72s16-5,17-11c1-6.24-3.63-14,12-26,13-10,4-29.93-1-31s-22,5-28,30.24C345.78,158.92,357,148.72,351,174.72Z"/><path class="cls-1" d="M293,148.72s11-28-10-39S256.35,43.14,283,8c23-30.31,43,33.69,33,51.69s-14,29,1,42S308,141.72,293,148.72Z"/><path class="cls-1" d="M200.55,155.15a.29.29,0,0,1-.47-.24c.29-3.82.36-20.5-18.08-37.19-20.51-18.56-3-68,10-68,12,0,23.28,13,19.14,36s-5.69,24.72,3.86,37C223,133,205.21,151.5,200.55,155.15Z"/></g></g></svg>