<?xml version="1.0" encoding="utf-8"?>
<!-- Generator: Adobe Illustrator 26.0.1, SVG Export Plug-In . SVG Version: 6.00 Build 0)  -->
<svg version="1.1" id="Layer_1" xmlns="http://www.w3.org/2000/svg" xmlns:xlink="http://www.w3.org/1999/xlink" x="0px" y="0px"
	 viewBox="0 0 1191.8 1191.8" style="enable-background:new 0 0 1191.8 1191.8;" xml:space="preserve">
<style type="text/css">
	.st0{fill:#323232;}
	.st1{fill:none;stroke:#FFFFFF;stroke-width:2;stroke-miterlimit:10;}
</style>
<path class="st0" d="M0,0v1191.8h1191.8V0H0z M745.9,205.5c7.7-32.5,29.6-40.3,36-38.9c6.4,1.4,18,27,1.3,39.9
	c-20.1,15.4-14.2,25.4-15.5,33.5c-1.3,7.7-21.9,14.2-21.9,14.2C753.6,220.6,739.1,233.7,745.9,205.5z M658.3,39.5
	c29.6-39,55.3,43.4,42.5,66.5c-12.9,23.2-18,37.3,1.3,54s-11.6,51.5-30.9,60.5c0,0,14.2-36-12.9-50.2
	C631.3,156.3,624,84.7,658.3,39.5z M541.2,93.2c15.5,0,30,16.7,24.6,46.3c-5.3,29.6-7.3,31.8,5,47.6c10.3,13.2-12.6,37-18.6,41.7
	c-0.2,0.1-0.4,0.1-0.5-0.1c-0.1-0.1-0.1-0.2-0.1-0.2c0.4-4.9,0.5-26.4-23.3-47.9C502,156.8,524.5,93.2,541.2,93.2z M555.4,1162.7
	l155.7-368.1l-417-45c0,0,90.1-166,109.4-199.5c19.3-33.5,45-101.7,16.7-239.4c-28.3-137.7,59.2-171.2,59.2-171.2
	c30.9,151.9,90.1,168.6,90.1,168.6C582.4,189.7,615.9,173,615.9,173c19.3,108.1,48.9,112,48.9,112c20.6-33.5,52.8-50.2,52.8-50.2
	c18,82.4,55.3,29.6,55.3,29.6C874.5,330,861.7,429.1,854,475.4c-7.7,46.3-104.2,191.8-149.3,160.9c-45-30.9-83.7-37.3-99.1-39.9
	c-15.4-2.6-6.4-12.9-6.4-12.9c211-52.8,194.3-195.6,194.3-195.6c-6.4-55.3-32.2-59.2-32.2-59.2c-5.1,12.9,5.2,50.2,5.2,50.2
	c-61.8,6.4-68.2-59.2-68.2-59.2c-11.6,14.2-19.3,82.4-19.3,82.4c-33.5-2.6-64.3-68.2-64.3-68.2c5.1,48.9,12.9,69.5,12.9,69.5
	c-78.5-18-128.7-82.4-128.7-82.4c1.3,55.3,29.6,104.2,32.2,158.3c2.6,54-61.8,177.6-61.8,177.6l428.6,50.2L555.4,1162.7z"/>
<g id="Layer_2_00000062161950329091979950000003774912218303078794_">
	<g id="Layer_1-2_00000012447637906544974510000018011334588295005871_">
		<path id="logo-clip_00000152235718023467121670000012771762974271693244_" class="st1" d="M555.4,1162.6l342.3-455.6l-428.6-50.2
			c0,0,64.3-123.5,61.8-177.6c-2.6-54.1-30.9-103-32.2-158.3c0,0,50.2,64.3,128.7,82.4c0,0-7.7-20.6-12.9-69.5
			c0,0,30.9,65.6,64.3,68.2c0,0,7.7-68.2,19.3-82.4c0,0,6.4,65.6,68.2,59.2c0,0-10.3-37.3-5.1-50.2c0,0,25.7,3.9,32.2,59.2
			c0,0,16.7,142.9-194.3,195.6c0,0-9,10.3,6.4,12.9c15.4,2.6,54.1,9,99.1,39.9s141.6-114.5,149.3-160.9
			c7.7-46.3,20.6-145.4-81.1-211.1c0,0-37.3,52.8-55.3-29.6c0,0-32.2,16.7-52.8,50.2c0,0-29.6-3.9-48.9-112
			c0,0-33.5,16.7-46.3,135.1c0,0-59.2-16.7-90.1-168.6c0,0-87.5,33.5-59.2,171.2c28.3,137.7,2.6,205.9-16.7,239.4
			c-19.3,33.5-109.4,199.5-109.4,199.5l417,45L555.4,1162.6z"/>
		<path class="st1" d="M745.8,254.1c0,0,20.6-6.4,21.9-14.2c1.3-8-4.7-18,15.4-33.5c16.7-12.9,5.1-38.5-1.3-39.9
			c-6.4-1.4-28.3,6.4-36,38.9C739.1,233.7,753.6,220.6,745.8,254.1z"/>
		<path class="st1" d="M671.2,220.6c0,0,14.2-36-12.9-50.2c-27-14.2-34.3-85.7,0-130.9c29.6-39,55.3,43.4,42.5,66.5
			s-18,37.3,1.3,54.1C721.4,176.8,690.5,211.6,671.2,220.6z"/>
		<path class="st1" d="M552.2,228.9c-0.2,0.1-0.4,0.1-0.5-0.1c-0.1-0.1-0.1-0.2-0.1-0.2c0.4-4.9,0.5-26.4-23.3-47.9
			c-26.4-23.9-3.9-87.5,12.9-87.5c15.4,0,30,16.7,24.6,46.3s-7.3,31.8,5,47.6C581.1,200.4,558.2,224.2,552.2,228.9z"/>
	</g>
</g>
</svg>
